<svg width="32" height="32" viewBox="0 0 32 32" fill="none" xmlns="http://www.w3.org/2000/svg">
<path d="M9.33332 22.6667L13.6 13.6L22.6667 9.33334L18.4 18.4L9.33332 22.6667ZM16 14.8C15.6817 14.8 15.3765 14.9264 15.1515 15.1515C14.9264 15.3765 14.8 15.6817 14.8 16C14.8 16.3183 14.9264 16.6235 15.1515 16.8485C15.3765 17.0736 15.6817 17.2 16 17.2C16.3182 17.2 16.6235 17.0736 16.8485 16.8485C17.0736 16.6235 17.2 16.3183 17.2 16C17.2 15.6817 17.0736 15.3765 16.8485 15.1515C16.6235 14.9264 16.3182 14.8 16 14.8ZM16 2.66667C17.7509 2.66667 19.4848 3.01155 21.1024 3.68161C22.7201 4.35167 24.19 5.3338 25.4281 6.57191C26.6662 7.81003 27.6483 9.27988 28.3184 10.8976C28.9884 12.5152 29.3333 14.249 29.3333 16C29.3333 19.5362 27.9286 22.9276 25.4281 25.4281C22.9276 27.9286 19.5362 29.3333 16 29.3333C14.249 29.3333 12.5152 28.9885 10.8975 28.3184C9.27987 27.6483 7.81001 26.6662 6.5719 25.4281C4.07141 22.9276 2.66666 19.5362 2.66666 16C2.66666 12.4638 4.07141 9.0724 6.5719 6.57191C9.07238 4.07143 12.4638 2.66667 16 2.66667ZM16 5.33334C13.171 5.33334 10.4579 6.45714 8.45752 8.45753C6.45713 10.4579 5.33332 13.171 5.33332 16C5.33332 18.829 6.45713 21.5421 8.45752 23.5425C10.4579 25.5429 13.171 26.6667 16 26.6667C18.829 26.6667 21.5421 25.5429 23.5425 23.5425C25.5428 21.5421 26.6667 18.829 26.6667 16C26.6667 13.171 25.5428 10.4579 23.5425 8.45753C21.5421 6.45714 18.829 5.33334 16 5.33334Z" fill="white"/>
</svg>
