<svg width="32" height="32" viewBox="0 0 32 32" fill="none" xmlns="http://www.w3.org/2000/svg">
<path d="M11.1867 17.88C11.1333 18 11.1333 18.1533 11.1333 18.4667V21.0667C11.1333 21.38 11.1333 21.5333 11.1867 21.6533C11.2533 21.82 11.3867 21.9467 11.5467 22.0133C11.6667 22.0667 11.82 22.0667 12.1333 22.0667C12.4467 22.0667 12.6 22.0667 12.72 22.0133C12.8829 21.9457 13.0123 21.8162 13.08 21.6533C13.1333 21.5333 13.1333 21.38 13.1333 21.0667V18.4667C13.1333 18.1533 13.1333 18 13.08 17.88C13.0123 17.7171 12.8829 17.5876 12.72 17.52C12.6 17.4667 12.4467 17.4667 12.1333 17.4667C11.82 17.4667 11.6667 17.4667 11.5467 17.52C11.3838 17.5876 11.2543 17.7171 11.1867 17.88ZM15 14.2667C15 13.9533 15 13.8 15.0533 13.68C15.121 13.5171 15.2504 13.3876 15.4133 13.32C15.5333 13.2667 15.6867 13.2667 16 13.2667C16.3133 13.2667 16.4667 13.2667 16.5867 13.32C16.7533 13.3867 16.88 13.52 16.9467 13.68C17 13.8 17 13.9533 17 14.2667V21.0667C17 21.38 17 21.5333 16.9467 21.6533C16.879 21.8162 16.7496 21.9457 16.5867 22.0133C16.4667 22.0667 16.3133 22.0667 16 22.0667C15.6867 22.0667 15.5333 22.0667 15.4133 22.0133C15.2504 21.9457 15.121 21.8162 15.0533 21.6533C15 21.5333 15 21.38 15 21.0667V14.2667ZM18.92 16.2133C18.8667 16.3333 18.8667 16.4867 18.8667 16.8V21.0667C18.8667 21.38 18.8667 21.5333 18.92 21.6533C18.9867 21.82 19.12 21.9467 19.28 22.0133C19.4 22.0667 19.5533 22.0667 19.8667 22.0667C20.18 22.0667 20.3333 22.0667 20.4533 22.0133C20.6162 21.9457 20.7457 21.8162 20.8133 21.6533C20.8667 21.5333 20.8667 21.38 20.8667 21.0667V16.8C20.8667 16.4867 20.8667 16.3333 20.8133 16.2133C20.7457 16.0504 20.6162 15.921 20.4533 15.8533C20.3333 15.8 20.18 15.8 19.8667 15.8C19.5533 15.8 19.4 15.8 19.28 15.8533C19.1171 15.921 18.9876 16.0504 18.92 16.2133Z" fill="white"/>
<path d="M11.0467 4.99333C10.9123 5.10619 10.8278 5.26747 10.8116 5.4422C10.7954 5.61692 10.8487 5.791 10.96 5.92667L13.3733 8.8H10.4667C8.6 8.8 7.66666 8.8 6.95333 9.16667C6.3279 9.48594 5.81927 9.99457 5.5 10.62C5.13333 11.3333 5.13333 12.2667 5.13333 14.1333V21.2667C5.13333 23.1333 5.13333 24.0667 5.5 24.78C5.81814 25.4079 6.32688 25.919 6.95333 26.24C7.66666 26.6 8.6 26.6 10.4667 26.6H21.5333C23.4 26.6 24.3333 26.6 25.0467 26.24C25.6756 25.9201 26.1868 25.4089 26.5067 24.78C26.8667 24.0667 26.8667 23.1333 26.8667 21.2667V14.1333C26.8667 12.2667 26.8667 11.3333 26.5067 10.62C26.1857 9.99355 25.6746 9.4848 25.0467 9.16667C24.3333 8.8 23.4 8.8 21.5333 8.8H18.5867L20.9933 5.93333C21.0499 5.86638 21.0926 5.78895 21.1192 5.70545C21.1458 5.62196 21.1556 5.53405 21.1482 5.44675C21.1408 5.35945 21.1162 5.27447 21.0759 5.19666C21.0356 5.11886 20.9804 5.04977 20.9133 4.99333L20.4 4.56C20.2643 4.4487 20.0903 4.39539 19.9155 4.41161C19.7408 4.42783 19.5795 4.51229 19.4667 4.64667L15.98 8.79333L12.4933 4.64667C12.3805 4.51229 12.2192 4.42783 12.0445 4.41161C11.8697 4.39539 11.6957 4.4487 11.56 4.56L11.0467 4.99333ZM10.4667 10.8H21.5333C22.5 10.8 23.1067 10.8 23.56 10.84C23.9933 10.8733 24.1133 10.9333 24.14 10.9467C24.3867 11.0733 24.5933 11.28 24.72 11.5267C24.7333 11.5533 24.7867 11.6733 24.8267 12.1067C24.8667 12.56 24.8667 13.1733 24.8667 14.1333V21.2667C24.8667 22.2333 24.8667 22.84 24.8267 23.2933C24.7933 23.7267 24.7333 23.8467 24.72 23.8733C24.5924 24.1228 24.3895 24.3257 24.14 24.4533C24.1133 24.4667 23.9933 24.52 23.56 24.56C23.1067 24.6 22.5 24.6 21.5333 24.6H10.4667C9.5 24.6 8.89333 24.6 8.44 24.56C8.24182 24.5596 8.04534 24.5235 7.86 24.4533C7.61052 24.3257 7.40758 24.1228 7.28 23.8733C7.26666 23.8467 7.21333 23.7267 7.17333 23.2933C7.13333 22.84 7.13333 22.2333 7.13333 21.2667V14.1333C7.13333 13.1667 7.13333 12.56 7.17333 12.1067C7.20666 11.6733 7.26666 11.5533 7.28 11.5267C7.40758 11.2772 7.61052 11.0743 7.86 10.9467C7.88666 10.9333 8.00666 10.88 8.44 10.84C9.11485 10.8023 9.79085 10.789 10.4667 10.8Z" fill="white"/>
</svg>
