<svg width="24" height="22" viewBox="0 0 24 22" fill="none" xmlns="http://www.w3.org/2000/svg">
<path d="M18.6667 19H24V16.3333H18.6667V13.6667L14.6667 17.6667L18.6667 21.6667V19ZM10.6667 0.333328C7.73333 0.333328 5.33333 2.73333 5.33333 5.66666C5.33333 8.6 7.73333 11 10.6667 11C13.6 11 16 8.6 16 5.66666C16 2.73333 13.6 0.333328 10.6667 0.333328ZM10.6667 2.99999C12.1333 2.99999 13.3333 4.2 13.3333 5.66666C13.3333 7.13333 12.1333 8.33333 10.6667 8.33333C9.2 8.33333 8 7.13333 8 5.66666C8 4.2 9.2 2.99999 10.6667 2.99999ZM10.6667 12.3333C7.06667 12.3333 0 14.0667 0 17.6667V21.6667H12.6667C12.2667 20.8667 12.1333 20.0667 12 19.1333H2.53333V17.6667C2.53333 16.8667 6.66667 14.8667 10.6667 14.8667C11.3333 14.8667 12 15 12.6667 15C13.0667 14.2 13.4667 13.4 14.1333 12.7333C12.8 12.4667 11.6 12.3333 10.6667 12.3333Z" fill="white"/>
</svg>
