<svg width="22" height="6" viewBox="0 0 22 6" fill="none" xmlns="http://www.w3.org/2000/svg">
<path d="M16.3333 3.00001C16.3333 2.29277 16.6143 1.61449 17.1144 1.11439C17.6145 0.614296 18.2928 0.333344 19 0.333344C19.7073 0.333344 20.3855 0.614296 20.8856 1.11439C21.3857 1.61449 21.6667 2.29277 21.6667 3.00001C21.6667 3.70725 21.3857 4.38553 20.8856 4.88563C20.3855 5.38573 19.7073 5.66668 19 5.66668C18.2928 5.66668 17.6145 5.38573 17.1144 4.88563C16.6143 4.38553 16.3333 3.70725 16.3333 3.00001ZM8.33334 3.00001C8.33334 2.29277 8.6143 1.61449 9.11439 1.11439C9.61449 0.614296 10.2928 0.333344 11 0.333344C11.7073 0.333344 12.3855 0.614296 12.8856 1.11439C13.3857 1.61449 13.6667 2.29277 13.6667 3.00001C13.6667 3.70725 13.3857 4.38553 12.8856 4.88563C12.3855 5.38573 11.7073 5.66668 11 5.66668C10.2928 5.66668 9.61449 5.38573 9.11439 4.88563C8.6143 4.38553 8.33334 3.70725 8.33334 3.00001ZM0.333344 3.00001C0.333344 2.29277 0.614295 1.61449 1.11439 1.11439C1.61449 0.614296 2.29277 0.333344 3.00001 0.333344C3.70725 0.333344 4.38553 0.614296 4.88563 1.11439C5.38573 1.61449 5.66668 2.29277 5.66668 3.00001C5.66668 3.70725 5.38573 4.38553 4.88563 4.88563C4.38553 5.38573 3.70725 5.66668 3.00001 5.66668C2.29277 5.66668 1.61449 5.38573 1.11439 4.88563C0.614295 4.38553 0.333344 3.70725 0.333344 3.00001Z" fill="white"/>
</svg>
